<?xml version="1.0" encoding="UTF-8" standalone="no"?>
<svg
   xmlns:dc="http://purl.org/dc/elements/1.1/"
   xmlns:cc="http://creativecommons.org/ns#"
   xmlns:rdf="http://www.w3.org/1999/02/22-rdf-syntax-ns#"
   xmlns:svg="http://www.w3.org/2000/svg"
   xmlns="http://www.w3.org/2000/svg"
   xmlns:sodipodi="http://sodipodi.sourceforge.net/DTD/sodipodi-0.dtd"
   xmlns:inkscape="http://www.inkscape.org/namespaces/inkscape"
   viewBox="1 1 511.99998 511.99998"
   version="1.1"
   id="svg20"
   sodipodi:docname="brightness (2).svg"
   inkscape:version="1.0 (4035a4fb49, 2020-05-01)">
  <metadata
     id="metadata26">
    <rdf:RDF>
      <cc:Work
         rdf:about="">
        <dc:format>image/svg+xml</dc:format>
        <dc:type
           rdf:resource="http://purl.org/dc/dcmitype/StillImage" />
      </cc:Work>
    </rdf:RDF>
  </metadata>
  <defs
     id="defs24" />
  <sodipodi:namedview
     inkscape:document-rotation="0"
     pagecolor="#ffffff"
     bordercolor="#666666"
     borderopacity="1"
     objecttolerance="10"
     gridtolerance="10"
     guidetolerance="10"
     inkscape:pageopacity="0"
     inkscape:pageshadow="2"
     inkscape:window-width="1920"
     inkscape:window-height="1013"
     id="namedview22"
     showgrid="false"
     inkscape:zoom="0.82226565"
     inkscape:cx="533.25678"
     inkscape:cy="275.23529"
     inkscape:window-x="-9"
     inkscape:window-y="-9"
     inkscape:window-maximized="1"
     inkscape:current-layer="svg20" />
  <path
     d="m256 111.238281c-79.820312 0-144.761719 64.941407-144.761719 144.761719s64.941407 144.761719 144.761719 144.761719 144.761719-64.941407 144.761719-144.761719c0-79.824219-64.941407-144.761719-144.761719-144.761719zm-114.761719 144.761719c0-58.199219 43.542969-106.414062 99.761719-113.785156v227.566406c-56.21875-7.367188-99.761719-55.582031-99.761719-113.78125zm129.761719 113.785156v-227.570312c56.21875 7.371094 99.761719 55.585937 99.761719 113.785156s-43.542969 106.414062-99.761719 113.785156zm0 0"
     id="path2" />
  <path
     d="m256 89.542969c8.28125 0 15-6.71875 15-15v-59.542969c0-8.285156-6.71875-15-15-15-8.285156 0-15 6.714844-15 15v59.542969c0 8.28125 6.714844 15 15 15zm0 0"
     id="path4" />
  <path
     d="m256 422.457031c-8.285156 0-15 6.71875-15 15v59.542969c0 8.285156 6.714844 15 15 15 8.28125 0 15-6.714844 15-15v-59.542969c0-8.285156-6.714844-15-15-15zm0 0"
     id="path6" />
  <path
     d="m89.542969 256c0-8.285156-6.71875-15-15-15h-59.542969c-8.285156 0-15 6.714844-15 15 0 8.28125 6.714844 15 15 15h59.542969c8.28125 0 15-6.714844 15-15zm0 0"
     id="path8" />
  <path
     d="m497 241h-59.542969c-8.285156 0-15 6.714844-15 15 0 8.28125 6.714844 15 15 15h59.542969c8.285156 0 15-6.71875 15-15 0-8.285156-6.714844-15-15-15zm0 0"
     id="path10" />
  <path
     d="m113.484375 134.695312c2.929687 2.929688 6.769531 4.394532 10.605469 4.394532 3.839844 0 7.675781-1.464844 10.605468-4.394532 5.855469-5.859374 5.855469-15.355468 0-21.210937l-43.285156-43.285156c-5.855468-5.859375-15.355468-5.859375-21.210937 0-5.859375 5.855469-5.859375 15.351562 0 21.210937zm0 0"
     id="path12" />
  <path
     d="m398.515625 377.304688c-5.855469-5.859376-15.351563-5.859376-21.210937 0-5.855469 5.855468-5.855469 15.351562 0 21.210937l43.285156 43.285156c2.929687 2.929688 6.769531 4.394531 10.605468 4.394531 3.839844 0 7.675782-1.464843 10.605469-4.394531 5.855469-5.859375 5.855469-15.355469 0-21.210937zm0 0"
     id="path14" />
  <path
     d="m113.484375 377.304688-43.285156 43.285156c-5.855469 5.855468-5.855469 15.351562 0 21.210937 2.929687 2.929688 6.765625 4.394531 10.605469 4.394531 3.835937 0 7.675781-1.464843 10.605468-4.394531l43.285156-43.285156c5.855469-5.859375 5.855469-15.355469 0-21.210937-5.855468-5.859376-15.355468-5.859376-21.210937 0zm0 0"
     id="path16" />
  <path
     d="m387.910156 139.089844c3.839844 0 7.675782-1.464844 10.605469-4.394532l43.285156-43.285156c5.855469-5.859375 5.855469-15.355468 0-21.210937-5.855469-5.859375-15.355469-5.859375-21.210937 0l-43.285156 43.285156c-5.859376 5.855469-5.859376 15.351563 0 21.210937 2.929687 2.929688 6.765624 4.394532 10.605468 4.394532zm0 0"
     id="path18" />
  <path
     transform="translate(1,1)"
     style="fill:#ffcc00;stroke:#ffcc00;stroke-width:6.584;stroke-miterlimit:4;stroke-dasharray:none;stroke-opacity:1"
     d="M 270.28977,254.96012 V 141.57356 l 3.75984,0.56906 c 6.43347,0.97373 18.11496,4.46559 25.73184,7.69182 12.89516,5.46193 23.47862,12.49321 33.93586,22.54582 11.11384,10.6838 17.99221,20.15929 24.47596,33.71757 16.00672,33.47191 14.78785,71.85218 -3.31678,104.44015 -15.13521,27.2431 -41.24178,47.41459 -71.444,55.2019 -3.79315,0.97802 -8.302,1.96466 -10.01968,2.19251 l -3.12304,0.41429 z"
     id="path853" />
  <path
     style="fill:#000000;fill-opacity:1;stroke:none;stroke-width:6.58446"
     d="m 230.15676,366.63914 c -9.09847,-2.08895 -16.16964,-4.62895 -25.23516,-9.06456 -12.96199,-6.34211 -21.8542,-12.80785 -32.01447,-23.2785 -17.05882,-17.57993 -27.76676,-39.48095 -31.23347,-63.882 -1.43877,-10.12701 -1.02176,-27.26844 0.89719,-36.87963 9.54939,-47.82882 47.326,-84.0571 95.64291,-91.72284 l 1.67221,-0.2653 V 254.86815 368.19 l -1.67221,-0.0424 c -0.91971,-0.0233 -4.54537,-0.70214 -8.057,-1.50839 z"
     id="path865"
     transform="translate(1,1)" />
  <path
     style="fill:#000000;fill-opacity:1;stroke:#000000;stroke-width:6.58446;stroke-opacity:1"
     d="m 234.71733,367.163 c -10.87536,-1.80106 -23.62311,-6.50564 -35.67469,-13.16581 -28.31805,-15.64964 -48.57904,-43.54961 -55.94929,-77.04383 -1.2639,-5.7438 -1.39823,-7.89032 -1.38744,-22.16953 0.0107,-14.14822 0.15748,-16.48106 1.39645,-22.19477 8.81216,-40.63857 37.79751,-73.05923 76.84056,-85.94761 6.43076,-2.12284 19.14969,-5.04368 19.67508,-4.51829 0.14916,0.14915 0.20206,51.0254 0.11756,113.05833 l -0.15363,112.78714 z"
     id="path867"
     transform="translate(1,1)" />
  <path
     transform="rotate(-90)"
     d="m -113.87033,255.65701 a 141.7244,143.55159 0 0 1 -70.8622,124.31933 141.7244,143.55159 0 0 1 -141.7244,-10e-6 141.7244,143.55159 0 0 1 -70.86219,-124.31932 h 141.72439 z"
     sodipodi:arc-type="slice"
     sodipodi:end="3.1415927"
     sodipodi:start="0"
     sodipodi:ry="143.55159"
     sodipodi:rx="141.7244"
     sodipodi:cy="255.65701"
     sodipodi:cx="-255.59473"
     sodipodi:type="arc"
     id="path871"
     style="fill:#ffcc00;fill-opacity:1;stroke:#ffcc00;stroke-width:6.55973" />
</svg>
