<svg viewBox="1 0 511.99998 511" xmlns="http://www.w3.org/2000/svg"><g fill="#ffb64c"><path d="m271 112.507812c-4.929688-.507812-9.929688-.769531-15-.769531-79.824219 0-144.757812 64.933594-144.757812 144.757813 0 79.820312 64.933593 144.753906 144.757812 144.753906 5.070312 0 10.070312-.257812 15-.769531 72.800781-7.527344 129.765625-69.222657 129.765625-143.984375 0-74.761719-56.964844-136.457032-129.765625-143.988282zm0 257.765626c-4.910156.652343-9.921875.980468-15 .980468v-229.515625c5.078125 0 10.089844.328125 15 .976563 56.222656 7.371094 99.769531 55.578125 99.769531 113.78125s-43.546875 106.410156-99.769531 113.777344zm0 0"/><path d="m271 15.5v59.542969c0 8.277343-6.722656 15-15 15-8.28125 0-15-6.722657-15-15v-59.542969c0-8.289062 6.71875-15 15-15 8.277344 0 15 6.710938 15 15zm0 0"/><path d="m271 437.949219v59.542969c0 8.289062-6.722656 15-15 15-8.28125 0-15-6.710938-15-15v-59.542969c0-8.28125 6.71875-15 15-15 8.277344 0 15 6.71875 15 15zm0 0"/><path d="m74.542969 271.492188h-59.542969c-8.285156 0-15-6.714844-15-14.996094 0-8.285156 6.714844-15 15-15h59.542969c8.28125 0 15 6.714844 15 15 0 8.28125-6.71875 14.996094-15 14.996094zm0 0"/></g><path d="m497 271.492188h-59.542969c-8.285156 0-15-6.714844-15-14.996094 0-8.285156 6.714844-15 15-15h59.542969c8.285156 0 15 6.714844 15 15 0 8.28125-6.714844 14.996094-15 14.996094zm0 0" fill="#ff9100"/><path d="m124.089844 139.585938c-3.839844 0-7.675782-1.464844-10.605469-4.394532l-43.285156-43.285156c-5.855469-5.859375-5.855469-15.355469 0-21.210938 5.855469-5.859374 15.355469-5.859374 21.210937 0l43.285156 43.285157c5.859376 5.855469 5.859376 15.351562 0 21.210937-2.929687 2.929688-6.765624 4.394532-10.605468 4.394532zm0 0" fill="#ffb64c"/><path d="m431.195312 446.691406c-3.839843 0-7.675781-1.464844-10.605468-4.394531l-43.285156-43.285156c-5.855469-5.859375-5.855469-15.355469 0-21.210938 5.855468-5.859375 15.355468-5.859375 21.210937 0l43.285156 43.285157c5.859375 5.855468 5.859375 15.351562 0 21.210937-2.929687 2.929687-6.765625 4.394531-10.605469 4.394531zm0 0" fill="#ff9100"/><path d="m80.804688 446.691406c-3.839844 0-7.675782-1.464844-10.605469-4.394531-5.855469-5.859375-5.855469-15.355469 0-21.210937l43.285156-43.285157c5.855469-5.859375 15.355469-5.859375 21.210937 0 5.859376 5.855469 5.859376 15.351563 0 21.210938l-43.285156 43.285156c-2.929687 2.929687-6.765625 4.394531-10.605468 4.394531zm0 0" fill="#ffb64c"/><path d="m387.910156 139.585938c-3.839844 0-7.675781-1.464844-10.605468-4.394532-5.855469-5.859375-5.855469-15.355468 0-21.210937l43.285156-43.285157c5.855468-5.859374 15.355468-5.859374 21.210937 0 5.859375 5.855469 5.859375 15.351563 0 21.210938l-43.285156 43.285156c-2.929687 2.929688-6.765625 4.394532-10.605469 4.394532zm0 0" fill="#ff9100"/><path d="m256 90.042969v-89.542969c8.277344 0 15 6.710938 15 15v59.542969c0 8.277343-6.722656 15-15 15zm0 0" fill="#ff9100"/><path d="m271 437.949219v59.542969c0 8.289062-6.722656 15-15 15v-89.542969c8.277344 0 15 6.71875 15 15zm0 0" fill="#ff9100"/><path d="m400.765625 256.496094c0 74.761718-56.964844 136.457031-129.765625 143.984375-4.929688.511719-9.929688.769531-15 .769531v-29.996094c5.078125 0 10.089844-.328125 15-.980468 56.222656-7.367188 99.769531-55.574219 99.769531-113.777344s-43.546875-106.410156-99.769531-113.78125c-4.910156-.648438-9.921875-.976563-15-.976563v-30c5.070312 0 10.070312.261719 15 .769531 72.800781 7.53125 129.765625 69.226563 129.765625 143.988282zm0 0" fill="#ff9100"/></svg>